<?xml version="1.0" encoding="UTF-8" standalone="no"?>
<svg
   xmlns:dc="http://purl.org/dc/elements/1.1/"
   xmlns:cc="http://creativecommons.org/ns#"
   xmlns:rdf="http://www.w3.org/1999/02/22-rdf-syntax-ns#"
   xmlns:svg="http://www.w3.org/2000/svg"
   xmlns="http://www.w3.org/2000/svg"
   width="590"
   height="40"
   id="svg2"
   version="1.1"
   >
    <g
       style="line-height:125%;letter-spacing:0px;word-spacing:0px;fill:#ffffff;fill-opacity:1;stroke:none;"
       id="text2985"
       transform="translate(-152.54857,-571.76135)">
      <path
         d="m 160.42857,577.17359 c 0,-0.44 -0.08,-1.2 0.44,-1.44 0.36,-0.16 2.12,-0.04 2.6,-0.04 3.6,0 5.6,2.48001 5.6,6 0,5.8 -3.64,5.92 -8.64,5.92 l 0,-10.44 m 6,10.84 c 3.96,-0.36 7.24,-2.56 7.24,-6.88 0,-5.55999 -4.6,-6.6 -9.16,-6.6 -1.67999,0.04 -3.4,0.12 -5.08,0.16 -2.27999,-0.04 -4.6,-0.12 -6.88,-0.16 l 0,0.92 c 1.28,0 2.96,-0.04 3.4,1.36 0.36,1.08 0.36,4.04001 0.36,5.32 l 0,11.28 c 0,1.28 0,4.24 -0.36,5.32 -0.44,1.36 -2.12,1.36 -3.4,1.36 l 0,0.92 c 2,-0.04 4.00001,-0.12 6,-0.16 1.92,0.04 3.80001,0.12 5.64,0.16 l 0,-0.92 c -1.28,0 -2.92,0.04 -3.4,-1.36 -0.36,-1.08 -0.36,-4.04 -0.36,-5.32 l 0,-4.72 c 2.12,0 1.96,0.24001 3.28,1.76 l 6.64,8.24 1.88,2.32 c 1,-0.04 2,-0.12 3,-0.16 1.2,0.04 2.4,0.12 3.6,0.16 l 0,-0.92 c -2.03999,-0.32 -2.64,-0.88 -3.92,-2.36 l -8.48,-9.72"
         id="path3758"
         />
      <path
         d="m 189.03482,583.33359 c -4.87999,0 -9.6,3.72001 -9.6,8.84 0,5.28 4.40001,9.28 9.6,9.28 5.24,0 9.64,-3.72 9.64,-9.12 0,-5.15999 -4.68,-9 -9.64,-9 m -0.16,0.92 c 4.72,0 5.8,4.48001 5.8,8.32 0,3.56 -1.08,7.96 -5.44,7.96 -4.67999,0 -5.8,-4.4 -5.8,-8.2 0,-3.47999 1.08001,-8.08 5.44,-8.08"
         id="path3760"
         />
      <path
         d="m 216.6567,597.65359 c -1.28,1.48 -3.04,2.52 -5.04,2.52 -4.52,0 -5.76,-4 -5.76,-7.84 0,-3.51999 1.32,-7.92 5.64,-7.92 1.48,0 1.8,0.32 2.28,1.52 0.28,0.76 0.8,1.56 1.76,1.56 0.72,0 1.32,-0.76 1.32,-1.48 0,-2.19999 -3.64,-2.68 -5.2,-2.68 -5.56,0 -9.8,4.04001 -9.8,9.64 0,4.96 3.64,8.48 8.6,8.48 2.6,0 5.36,-1 7.04,-3.08 l -0.84,-0.72"
         id="path3762"
         />
      <path
         d="m 226.2942,573.65359 -6.4,1.28 0,0.8 c 0.92,0.12 2.12,0.04 2.6,1.04 0.4,0.84 0.4,3.28 0.4,4.28 l 0,15.36 c 0,2.64 0.2,3.6 -2.8,3.8 l 0,0.8 c 1.52,-0.04 3.08,-0.12 4.6,-0.16 1.48,0.04 2.92,0.12 4.4,0.16 l 0,-0.8 c -3.12,-0.2 -2.8,-1.4 -2.8,-4.04 l 0,-4.4 c 0,-1.47999 0.08,-3.08 0.72,-4.36 0.8,-1.59999 2.76,-2.8 4.48,-2.8 3.4,0 3.64,3.32001 3.64,5.88 l 0,5.92 c 0,2.64 0.24,3.6 -2.76,3.8 l 0,0.8 c 1.36,-0.04 2.84,-0.12 4.28,-0.16 1.56,0.04 3.08,0.12 4.64,0.16 l 0,-0.8 c -3.12,-0.2 -2.76,-1.4 -2.76,-4.04 l 0,-7.24 c 0,-3.79999 -2.20001,-5.6 -6,-5.6 -2.56,0 -4.8,1.28001 -6.16,3.44 l -0.08,0 0,-13.12"
         id="path3764"
         />
      <path
         d="m 259.59857,597.21359 c -1.2,1.6 -3,2.96 -5.04,2.96 -4.27999,0 -6.28,-4.24 -6.28,-8.04 l 0.16,-1.92 11.48,0 c 0.4,0 1,0.16 1,-0.36 0,-4.31999 -3.72,-6.52 -7.64,-6.52 -5.19999,0 -9,4.52001 -9,9.52 0,5.12 4.08001,8.6 9.04,8.6 3,0 5.24001,-1.08 7.12,-3.4 l -0.84,-0.84 m -10.96,-8.08 c 0.48,-2.59999 1.68001,-4.88 4.68,-4.88 2.52,0 3.88,1.60001 3.88,4.08 0,1 -1.32,0.8 -1.96,0.8 l -6.6,0"
         id="path3766"
         />
      <path
         d="m 265.51857,600.01359 c 1.2,0.96 2.88001,1.44 4.4,1.44 3.08,0 5.88,-2 5.88,-5.28 0,-3.59999 -2.52,-4.64 -5.28,-6.08 -1.51999,-0.84 -3.72,-1.56 -3.72,-3.64 0,-1.43999 1.24,-2.2 2.56,-2.2 2.52,0 3.4,2.12001 4.12,4.12 l 0.8,0 0.08,-5 -0.48,0 -0.8,0.96 c -1.12,-0.64 -2.64,-1 -3.88,-1 -2.75999,0 -4.96,2.04001 -4.96,4.8 0,3 2.48001,4.32 4.8,5.52 1.72,0.88 4.04,1.80001 4.04,4.08 0,1.92 -1.6,2.8 -3.36,2.8 -2.95999,0 -4.32,-2.52 -4.96,-5.08 l -0.8,0 0.16,5.72 0.4,0 1,-1.16"
         id="path3768"
         />
      <path
         d="m 280.89357,585.09359 0,12.24 c 0,3 1.96001,4.12 4.84,4.12 1.92,0 3.92,-0.64 4.64,-2.56 l -0.72,-0.52 c -0.76,1 -1.48,1.8 -2.88,1.8 -2.11999,0 -2.48,-1.88 -2.48,-3.68 l 0,-11.4 4.56,0 0,-1.08 -4.56,0 0,-4.68 -0.6,0 c -0.84,2.28 -2.84,3.88 -4.84,5.04 l 0,0.72 2.04,0"
         id="path3770"
         />
      <path
         d="m 306.78607,597.21359 c -1.2,1.6 -3,2.96 -5.04,2.96 -4.27999,0 -6.28,-4.24 -6.28,-8.04 l 0.16,-1.92 11.48,0 c 0.4,0 1,0.16 1,-0.36 0,-4.31999 -3.72,-6.52 -7.64,-6.52 -5.19999,0 -9,4.52001 -9,9.52 0,5.12 4.08001,8.6 9.04,8.6 3,0 5.24001,-1.08 7.12,-3.4 l -0.84,-0.84 m -10.96,-8.08 c 0.48,-2.59999 1.68001,-4.88 4.68,-4.88 2.52,0 3.88,1.60001 3.88,4.08 0,1 -1.32,0.8 -1.96,0.8 l -6.6,0"
         id="path3772"
         />
      <path
         d="m 314.06607,596.41359 c 0,2.64 0.2,3.6 -2.8,3.8 l 0,0.8 c 1.56,-0.04 3.08001,-0.12 4.64,-0.16 1.52,0.04 3.08001,0.12 4.6,0.16 l 0,-0.8 c -3.35999,-0.16 -3.04,-1.12 -3.04,-4.04 l 0,-3.96 c 0,-1.83999 0,-3.8 0.92,-5.44 0.6,-1 1.92,-2 3.12,-2 1.56,0 1.20001,2.08 2.88,2.08 0.76,0 1.4,-0.68 1.4,-1.44 0,-1.47999 -1.6,-2.08 -2.84,-2.08 -2.75999,0 -4.76,1.60001 -5.8,4.04 l -0.08,0 c 0.04,-1.43999 -0.12,-2.88 -0.48,-4.04 -1.75999,0.4 -3.52,1.12 -5.4,1.24 l 0,0.8 c 1.28,0 2.28,-0.15999 2.64,1.28 0.28,0.92 0.24,3.76 0.24,4.84 l 0,4.92"
         id="path3774"
         />
      <path
         d="m 341.43232,593.41359 c 0,1.28 0,4.24 -0.4,5.32 -0.52,1.36 -2.16,1.36 -3.44,1.36 l 0,0.92 c 2,-0.04 4.04001,-0.12 6.04,-0.16 1.92,0.04 3.88001,0.12 5.76,0.16 l 0,-0.92 c -1.28,0 -2.92,0 -3.44,-1.36 -0.4,-1.08 -0.4,-4.04 -0.4,-5.32 l 0,-11.28 c 0,-1.27999 0,-4.24 0.4,-5.32 0.52,-1.35999 2.16,-1.36 3.44,-1.36 l 0,-0.92 c -1.99999,0.04 -4,0.12 -6.04,0.16 -1.91999,-0.04 -3.84,-0.12 -5.76,-0.16 l 0,0.92 c 1.28,0 2.92,1e-5 3.44,1.36 0.4,1.08 0.4,4.04001 0.4,5.32 l 0,11.28"
         id="path3776"
         />
      <path
         d="m 370.44732,588.85359 c 0,-3.79999 -2.16,-5.52 -5.96,-5.52 -2.83999,0 -5,1.16001 -6.4,3.64 l -0.08,0 -0.52,-3.64 c -1.95999,0.36 -3.44,1 -5.52,1.24 l 0,0.8 c 1.28,0 2.36,-0.15999 2.68,1.28 0.2,0.92 0.2,3.72 0.2,4.84 l 0,4.92 c 0,2.64 0.2,3.6 -2.8,3.8 l 0,0.8 c 1.56,-0.04 3.08001,-0.12 4.64,-0.16 1.44,0.04 2.92001,0.12 4.36,0.16 l 0,-0.8 c -3.15999,-0.2 -2.8,-1.4 -2.8,-4.04 l 0,-6.2 c 0,-2.91999 2.00001,-5.36 5.12,-5.36 3.8,0 3.68,3.92001 3.68,6.68 l 0,5.12 c 0,2.64 0.2,3.6 -2.8,3.8 l 0,0.8 c 1.56,-0.04 3.08001,-0.12 4.64,-0.16 1.44,0.04 2.92001,0.12 4.36,0.16 l 0,-0.8 c -3.11999,-0.2 -2.8,-1.4 -2.8,-4.04 l 0,-7.32"
         id="path3778"
         />
      <path
         d="m 377.4717,600.01359 c 1.2,0.96 2.88,1.44 4.4,1.44 3.08,0 5.88,-2 5.88,-5.28 0,-3.59999 -2.52,-4.64 -5.28,-6.08 -1.52,-0.84 -3.72,-1.56 -3.72,-3.64 0,-1.43999 1.24,-2.2 2.56,-2.2 2.52,0 3.4,2.12001 4.12,4.12 l 0.8,0 0.08,-5 -0.48,0 -0.8,0.96 c -1.12,-0.64 -2.64,-1 -3.88,-1 -2.76,0 -4.96,2.04001 -4.96,4.8 0,3 2.48,4.32 4.8,5.52 1.72,0.88 4.04,1.80001 4.04,4.08 0,1.92 -1.6,2.8 -3.36,2.8 -2.96,0 -4.32,-2.52 -4.96,-5.08 l -0.8,0 0.16,5.72 0.4,0 1,-1.16"
         id="path3780"
         />
      <path
         d="m 392.8467,585.09359 0,12.24 c 0,3 1.96,4.12 4.84,4.12 1.92,0 3.92,-0.64 4.64,-2.56 l -0.72,-0.52 c -0.76,1 -1.48,1.8 -2.88,1.8 -2.12,0 -2.48,-1.88 -2.48,-3.68 l 0,-11.4 4.56,0 0,-1.08 -4.56,0 0,-4.68 -0.6,0 c -0.84,2.28 -2.84,3.88 -4.84,5.04 l 0,0.72 2.04,0"
         id="path3782"
         />
      <path
         d="m 402.8192,584.57359 0,0.8 c 0.8,-0.04 2.48,-0.12 2.76,0.88 0.16,0.6 0.16,3.68 0.16,4.44 l 0,5.72 c -0.04,2.64 0.2,3.6 -2.76,3.8 l 0,0.8 c 1.56,-0.04 3.12,-0.12 4.68,-0.16 1.44,0.04 2.92,0.12 4.28,0.16 l 0,-0.8 c -3.16,-0.2 -2.72,-1.4 -2.8,-4.04 l 0,-12.84 -6.32,1.24 m 4.24,-6.24 c 1.12,0 2.04,-0.96 2.04,-2.12 0,-1.2 -0.92,-2.16 -2.12,-2.16 -1.2,0 -2.16,0.96 -2.16,2.16 0,1.24 1.04,2.12 2.24,2.12"
         id="path3784"
         />
      <path
         d="m 416.83107,585.09359 0,12.24 c 0,3 1.96001,4.12 4.84,4.12 1.92,0 3.92,-0.64 4.64,-2.56 l -0.72,-0.52 c -0.76,1 -1.48,1.8 -2.88,1.8 -2.11999,0 -2.48,-1.88 -2.48,-3.68 l 0,-11.4 4.56,0 0,-1.08 -4.56,0 0,-4.68 -0.6,0 c -0.84,2.28 -2.84,3.88 -4.84,5.04 l 0,0.72 2.04,0"
         id="path3786"
         />
      <path
         d="m 433.00357,583.69359 c -1,0.04 -2.08,0.12 -3.12,0.16 -1.12,-0.04 -2.2,-0.12 -3.32,-0.16 l 0,0.76 c 3.28,0.48 3.04,1.40001 3.04,4.44 l 0,6.84 c 0,3.52 1.48001,5.72 5.52,5.72 2.68,0 5.24001,-1.56 6.68,-3.76 l 0.84,3.76 5.56,-1.44 0,-0.92 c -0.52,0.04 -1.04,0.12 -1.52,0.12 -1.47999,0 -1.48,-1.6 -1.48,-2.68 l 0,-12.88 c -1,0.08 -2.08,0.12 -3.12,0.2 -1.12,-0.08 -2.2,-0.12 -3.32,-0.2 l 0,0.8 c 3.28,0.48 3.04,1.40001 3.04,4.44 l 0,5.36 c 0,3.08 -2.32,5.92 -5.48,5.92 -3.11999,0 -3.32,-3.2 -3.32,-5.56 l 0,-10.92"
         id="path3788"
         />
      <path
         d="m 452.8467,585.09359 0,12.24 c 0,3 1.96,4.12 4.84,4.12 1.92,0 3.92,-0.64 4.64,-2.56 l -0.72,-0.52 c -0.76,1 -1.48,1.8 -2.88,1.8 -2.12,0 -2.48,-1.88 -2.48,-3.68 l 0,-11.4 4.56,0 0,-1.08 -4.56,0 0,-4.68 -0.6,0 c -0.84,2.28 -2.84,3.88 -4.84,5.04 l 0,0.72 2.04,0"
         id="path3790"
         />
      <path
         d="m 478.7392,597.21359 c -1.2,1.6 -3,2.96 -5.04,2.96 -4.28,0 -6.28,-4.24 -6.28,-8.04 l 0.16,-1.92 11.48,0 c 0.4,0 1,0.16 1,-0.36 0,-4.31999 -3.72001,-6.52 -7.64,-6.52 -5.2,0 -9,4.52001 -9,9.52 0,5.12 4.08,8.6 9.04,8.6 3,0 5.24,-1.08 7.12,-3.4 l -0.84,-0.84 m -10.96,-8.08 c 0.48,-2.59999 1.68,-4.88 4.68,-4.88 2.52,0 3.88,1.60001 3.88,4.08 0,1 -1.32,0.8 -1.96,0.8 l -6.6,0"
         id="path3792"
         />
      <path
         d="m 503.40982,583.33359 c -4.87999,0 -9.6,3.72001 -9.6,8.84 0,5.28 4.40001,9.28 9.6,9.28 5.24,0 9.64,-3.72 9.64,-9.12 0,-5.15999 -4.68,-9 -9.64,-9 m -0.16,0.92 c 4.72,0 5.8,4.48001 5.8,8.32 0,3.56 -1.08,7.96 -5.44,7.96 -4.67999,0 -5.8,-4.4 -5.8,-8.2 0,-3.47999 1.08001,-8.08 5.44,-8.08"
         id="path3794"
         />
      <path
         d="m 518.4317,585.65359 0,10.16 c 0,3.12 0.08,4.2 -3.44,4.4 l 0,0.8 c 1.84,-0.04 3.64,-0.12 5.48,-0.16 1.92,0.04 3.8,0.12 5.72,0.16 l 0,-0.8 c -1.44,-0.08 -3.4,0.16 -4,-1.48 -0.2,-0.52 -0.36,-1.48 -0.36,-2.48 l 0,-10.6 4.92,0 0,-1.08 -4.92,0 0,-2.76 c 0,-1.55999 0,-3.48 0.6,-4.92 0.6,-1.43999 1.68,-1.92 3.2,-1.92 1.4,0 1.88,0.6 2.32,1.76 0.24,0.6 0.6,1.12 1.4,1.12 0.72,0 1.4,-0.56 1.4,-1.28 0,-2.07999 -3.4,-2.52 -4.88,-2.52 -5.56,0 -7.44,3.20001 -7.44,8.36 l 0,2.16 -3.2,0 0,1.08 3.2,0"
         id="path3796"
         />
      <path
         d="m 563.23482,574.53359 -24.56,0 0,6.24 0.92,0 c 0.16,-4.75999 2.08001,-4.96 6.04,-4.96 1.6,0 3.36,-0.12 3.36,1.08 l 0,18.96 c 0,2.96 -0.56,4.08 -4.44,4.24 l 0,0.92 c 2.16,-0.04 4.24001,-0.12 6.36,-0.16 2.2,0.04 4.44001,0.12 6.64,0.16 l 0,-0.92 c -3.87999,-0.16 -4.44,-1.28 -4.44,-4.24 l 0,-18.96 c 0,-1.27999 2.40001,-1.08 3.88,-1.08 3.76,0 5.28,1.04001 5.52,4.96 l 1.08,0 -0.36,-6.24"
         id="path3798"
         />
      <path
         d="m 577.1767,597.21359 c -1.2,1.6 -3,2.96 -5.04,2.96 -4.28,0 -6.28,-4.24 -6.28,-8.04 l 0.16,-1.92 11.48,0 c 0.4,0 1,0.16 1,-0.36 0,-4.31999 -3.72001,-6.52 -7.64,-6.52 -5.2,0 -9,4.52001 -9,9.52 0,5.12 4.08,8.6 9.04,8.6 3,0 5.24,-1.08 7.12,-3.4 l -0.84,-0.84 m -10.96,-8.08 c 0.48,-2.59999 1.68,-4.88 4.68,-4.88 2.52,0 3.88,1.60001 3.88,4.08 0,1 -1.32,0.8 -1.96,0.8 l -6.6,0"
         id="path3800"
         />
      <path
         d="m 596.6567,597.65359 c -1.28,1.48 -3.04,2.52 -5.04,2.52 -4.52,0 -5.76,-4 -5.76,-7.84 0,-3.51999 1.32,-7.92 5.64,-7.92 1.48,0 1.8,0.32 2.28,1.52 0.28,0.76 0.8,1.56 1.76,1.56 0.72,0 1.32,-0.76 1.32,-1.48 0,-2.19999 -3.64,-2.68 -5.2,-2.68 -5.56,0 -9.8,4.04001 -9.8,9.64 0,4.96 3.64,8.48 8.6,8.48 2.6,0 5.36,-1 7.04,-3.08 l -0.84,-0.72"
         id="path3802"
         />
      <path
         d="m 606.2942,573.65359 -6.4,1.28 0,0.8 c 0.92,0.12 2.12,0.04 2.6,1.04 0.4,0.84 0.4,3.28 0.4,4.28 l 0,15.36 c 0,2.64 0.2,3.6 -2.8,3.8 l 0,0.8 c 1.52,-0.04 3.08,-0.12 4.6,-0.16 1.48,0.04 2.92,0.12 4.4,0.16 l 0,-0.8 c -3.12,-0.2 -2.8,-1.4 -2.8,-4.04 l 0,-4.4 c 0,-1.47999 0.08,-3.08 0.72,-4.36 0.8,-1.59999 2.76,-2.8 4.48,-2.8 3.4,0 3.64,3.32001 3.64,5.88 l 0,5.92 c 0,2.64 0.24,3.6 -2.76,3.8 l 0,0.8 c 1.36,-0.04 2.84,-0.12 4.28,-0.16 1.56,0.04 3.08,0.12 4.64,0.16 l 0,-0.8 c -3.12,-0.2 -2.76,-1.4 -2.76,-4.04 l 0,-7.24 c 0,-3.79999 -2.20001,-5.6 -6,-5.6 -2.56,0 -4.8,1.28001 -6.16,3.44 l -0.08,0 0,-13.12"
         id="path3804"
         />
      <path
         d="m 642.47857,588.85359 c 0,-3.79999 -2.16,-5.52 -5.96,-5.52 -2.83999,0 -5,1.16001 -6.4,3.64 l -0.08,0 -0.52,-3.64 c -1.95999,0.36 -3.44,1 -5.52,1.24 l 0,0.8 c 1.28,0 2.36,-0.15999 2.68,1.28 0.2,0.92 0.2,3.72 0.2,4.84 l 0,4.92 c 0,2.64 0.2,3.6 -2.8,3.8 l 0,0.8 c 1.56,-0.04 3.08001,-0.12 4.64,-0.16 1.44,0.04 2.92001,0.12 4.36,0.16 l 0,-0.8 c -3.15999,-0.2 -2.8,-1.4 -2.8,-4.04 l 0,-6.2 c 0,-2.91999 2.00001,-5.36 5.12,-5.36 3.8,0 3.68,3.92001 3.68,6.68 l 0,5.12 c 0,2.64 0.2,3.6 -2.8,3.8 l 0,0.8 c 1.56,-0.04 3.08001,-0.12 4.64,-0.16 1.44,0.04 2.92001,0.12 4.36,0.16 l 0,-0.8 c -3.11999,-0.2 -2.8,-1.4 -2.8,-4.04 l 0,-7.32"
         id="path3806"
         />
      <path
         d="m 657.86295,583.33359 c -4.88,0 -9.6,3.72001 -9.6,8.84 0,5.28 4.4,9.28 9.6,9.28 5.23999,0 9.64,-3.72 9.64,-9.12 0,-5.15999 -4.68001,-9 -9.64,-9 m -0.16,0.92 c 4.71999,0 5.8,4.48001 5.8,8.32 0,3.56 -1.08001,7.96 -5.44,7.96 -4.68,0 -5.8,-4.4 -5.8,-8.2 0,-3.47999 1.08,-8.08 5.44,-8.08"
         id="path3808"
         />
      <path
         d="m 676.40482,573.65359 -6.4,1.28 0,0.8 c 0.92,0.12 2.12,0.04 2.6,1.04 0.4,0.84 0.4,3.28 0.4,4.28 l 0,15.36 c 0,2.64 0.2,3.6 -2.8,3.8 l 0,0.8 c 1.48,-0.04 2.92001,-0.12 4.4,-0.16 1.52,0.04 3.04001,0.12 4.6,0.16 l 0,-0.8 c -3.15999,-0.2 -2.72,-1.4 -2.8,-4.04 l 0,-22.52"
         id="path3810"
         />
      <path
         d="m 691.4567,583.33359 c -4.88,0 -9.6,3.72001 -9.6,8.84 0,5.28 4.4,9.28 9.6,9.28 5.23999,0 9.64,-3.72 9.64,-9.12 0,-5.15999 -4.68001,-9 -9.64,-9 m -0.16,0.92 c 4.71999,0 5.8,4.48001 5.8,8.32 0,3.56 -1.08001,7.96 -5.44,7.96 -4.68,0 -5.8,-4.4 -5.8,-8.2 0,-3.47999 1.08,-8.08 5.44,-8.08"
         id="path3812"
         />
      <path
         d="m 711.79857,595.13359 c -2.87999,0 -3.84,-2.96 -3.84,-5.36 0,-2.51999 0.84001,-5.52 3.92,-5.52 3.04,0 4,2.96001 4,5.52 0,2.6 -1,5.36 -4.08,5.36 m -1.4,3.92 c -0.88,-0.08 -3.08,0.08 -3.08,-1.32 0,-1.63999 3.08,-1.64 4.28,-1.68 4.12,-0.2 7.68,-1.56 7.68,-6.28 0,-1.43999 -0.48,-2.84 -1.44,-3.92 0.44,-0.36 1.08,-0.76 1.64,-0.76 1.24,0 1.36,1.4 2.6,1.4 0.76,0 1.32,-0.6 1.32,-1.32 0,-1.24 -1.32,-1.72 -2.36,-1.72 -1.43999,0 -2.8,0.84 -3.88,1.68 -1.36,-1.24 -3.24,-1.8 -5.08,-1.8 -3.91999,0 -7.52,2.28001 -7.52,6.52 0,2.56 1.96001,4.76 4.28,5.52 l 0,0.08 c -1.71999,0.24 -3.52,1.52001 -3.52,3.44 0,3.6 3.64001,3.52 6.28,3.6 2.76,0.16 7.16,-0.04 7.16,3.88 0,3.24 -3.04,4.44 -5.84,4.44 -2.79999,0 -6.36,-0.68 -6.36,-4.16 0,-1.24 0.76,-2.6 2.08,-2.84 -0.48,-0.44 -1,-0.72 -1.68,-0.72 -1.71999,0 -2.96,1.68001 -2.96,3.32 0,4.16 5.08001,5.32 8.4,5.32 4.36,0 9.08,-1.64 9.08,-6.72 0,-5.35999 -4.32,-5.52 -8.4,-5.84 l -2.68,-0.12"
         id="path3814"
         />
      <path
         d="m 731.45982,600.73359 -1.52,3.4 c -0.48,1.12 -1.16,2.72 -1.8,3.68 -0.8,1.24 -3.04,1.12001 -3.04,2.96 0,0.56 0.48,1.12 1.2,0.96 1.68,0 2.84,-3.08 3.36,-4.32 l 8.32,-19.2 0.52,-1.16 c 0.64,-1.35999 0.68001,-2.52 2.36,-2.56 l 0,-0.8 c -0.88,0.04 -1.76,0.12 -2.64,0.16 -1.04,-0.04 -2.04,-0.12 -3.08,-0.16 l 0,0.8 c 0.84,0.04 2.2,0.28 2.2,1.4 0,1.04 -0.72,2.76 -1.12,3.72 l -3,7.2 -2.56,-6.12 c -0.44,-1.08 -1.64,-3.76 -1.64,-4.8 0,-1.27999 1.88,-1.2 2.44,-1.4 l 0,-0.8 c -1.51999,0.04 -3,0.12 -4.52,0.16 -1.36,-0.04 -2.72,-0.12 -4.08,-0.16 l 0,0.8 c 0.48,0 1.44,0.44 1.8,0.84 0.48,0.56 0.88,1.56 1.16,2.24 l 5.64,13.16"
         id="path3816"
         />
    </g>
</svg>
